<?xml version="1.0" encoding="UTF-8"?>
<svg xmlns="http://www.w3.org/2000/svg" viewBox="0 0 700 220" width="700" height="220">
  <defs>
    <linearGradient id="g2" x1="0" y1="0" x2="1" y2="1">
      <stop offset="0" stop-color="#1B7A3E"/>
      <stop offset="1" stop-color="#2EA055"/>
    </linearGradient>
  </defs>
  <g transform="translate(40,30)">
    <rect x="0" y="0" width="160" height="160" rx="36" ry="36" fill="url(#g2)"/>
    <path d="M40 40 L100 40 L100 56 L56 56 L56 72 L92 72 L92 88 L56 88 L56 104 L100 104 L100 120 L40 120 Z" fill="#FFFFFF"/>
    <path d="M110 40 L126 40 L126 110 Q126 132 104 132 Q88 132 84 118 L100 114 Q102 120 108 120 Q110 120 110 116 Z" fill="#FFD23F"/>
  </g>
  <g transform="translate(230,120)">
    <text font-family="Helvetica, Arial, sans-serif" font-size="60" font-weight="800" letter-spacing="-2">
      <tspan fill="#1A1A1A">educa</tspan><tspan fill="#1B7A3E">já</tspan>
    </text>
    <text y="26" font-family="Helvetica, Arial, sans-serif" font-size="12" fill="#777" letter-spacing="5">A ESCOLA NA SUA MÃO</text>
  </g>
</svg>
